# xmcd
#
# Track frame offsets:
# 150
# 29502
# 75425
# 96993
# 117731
# 148940
# 184738
# 197627
# 217990
# 233986
#
# Disc length: 3359 seconds
#
# Revision: 0
# Processed by: cddbd v1.4PL0 Copyright (c) Steve Scherf et al.
# Submitted via: Axialis_AX_CDPlayer 2.6
#
DISCID=900d1d0a
DTITLE=Rory Gallagher - Blueprint
DYEAR=1900
DGENRE=
TTITLE0=Walk on hot coals
TTITLE1=Daughter of the everglades
TTITLE2=Banker's blues
TTITLE3=Hands off
TTITLE4=Race the breeze
TTITLE5=The seventh son of a seventh son
TTITLE6=Unmilitary two-step
TTITLE7=If I had a reason
TTITLE8=Stompin' ground
TTITLE9=Treat her right
EXTD=
EXTT0=
EXTT1=
EXTT2=
EXTT3=
EXTT4=
EXTT5=
EXTT6=
EXTT7=
EXTT8=
EXTT9=
PLAYORDER=
